<svg width="22" height="16" viewBox="0 0 22 16" fill="none" xmlns="http://www.w3.org/2000/svg">
<path fill-rule="evenodd" clip-rule="evenodd" d="M19.202 15.4133C20.3541 15.2533 21.2868 14.4 21.5062 13.28C21.7257 12.0533 21.9451 10.24 22 8C22 5.76 21.7257 3.94667 21.5062 2.72C21.2868 1.6 20.3541 0.746667 19.202 0.586667C17.3367 0.32 14.3741 0 10.9726 0C7.57107 0 4.55362 0.32 2.74314 0.586667C1.59102 0.746667 0.658354 1.6 0.438903 2.72C0.219451 3.94667 0 5.76 0 8C0 10.24 0.219451 12.0533 0.438903 13.28C0.658354 14.4 1.59102 15.2533 2.74314 15.4133C4.60848 15.68 7.62594 16 10.9726 16C14.3741 16 17.3915 15.68 19.202 15.4133ZM15.3616 8L8.77806 4.26667V11.7333L15.3616 8Z" fill="black"/>
</svg>
