<svg width="76" height="85" viewBox="0 0 76 85" fill="none" xmlns="http://www.w3.org/2000/svg">
<path fill-rule="evenodd" clip-rule="evenodd" d="M44.7021 0.726074C49.9986 0.726074 54.7724 1.91093 59.0267 4.2775C63.2794 6.64616 66.6106 9.73649 69.0181 13.548C71.4256 17.3605 72.6297 21.3542 72.6297 25.5265C72.6297 30.986 70.7432 35.7599 66.9719 39.8534C70.0206 42.1014 72.2871 44.7291 73.7731 47.739C75.257 50.7489 76 53.939 76 57.3102C76 61.8852 74.655 66.2998 71.9671 70.553C69.2776 74.8084 65.4462 78.2789 60.4714 80.9671C55.4945 83.6569 49.7975 85 43.378 85H0.884613V0.726074H44.7021Z" fill="#093873"/>
</svg>
