<svg width="76" height="85" viewBox="0 0 76 85" fill="none" xmlns="http://www.w3.org/2000/svg">
<path fill-rule="evenodd" clip-rule="evenodd" d="M44.702 0.726074C49.9985 0.726074 54.7723 1.91093 59.0266 4.2775C63.2793 6.64616 66.6105 9.73649 69.018 13.548C71.4255 17.3605 72.6296 21.3542 72.6296 25.5265C72.6296 30.986 70.7431 35.7599 66.9718 39.8534C70.0205 42.1014 72.2871 44.7291 73.773 47.739C75.2569 50.7489 75.9999 53.939 75.9999 57.3102C75.9999 61.8852 74.6549 66.2998 71.967 70.553C69.2775 74.8084 65.4461 78.2789 60.4713 80.9671C55.4944 83.6569 49.7974 85 43.3779 85H0.884521V0.726074H44.702Z" fill="white"/>
</svg>
