<svg width="7" height="8" viewBox="0 0 7 8" fill="none" xmlns="http://www.w3.org/2000/svg">
<path fill-rule="evenodd" clip-rule="evenodd" d="M4.16964 0.445435C4.61675 0.445435 5.01974 0.545063 5.37887 0.744056C5.73788 0.943225 6.01908 1.20307 6.22232 1.52356C6.42556 1.84414 6.5272 2.17995 6.5272 2.53078C6.5272 2.98984 6.36795 3.39125 6.04958 3.73545C6.30695 3.92448 6.49828 4.14542 6.62372 4.39851C6.74899 4.6516 6.81171 4.91984 6.81171 5.20331C6.81171 5.58799 6.69817 5.95919 6.47126 6.31683C6.24423 6.67464 5.92079 6.96645 5.50083 7.1925C5.0807 7.41867 4.59978 7.5316 4.05786 7.5316H0.470703V0.445435H4.16964Z" fill="white"/>
</svg>
