<svg width="8" height="9" viewBox="0 0 8 9" fill="none" xmlns="http://www.w3.org/2000/svg">
<path fill-rule="evenodd" clip-rule="evenodd" d="M4.85535 0.450012C5.38751 0.450012 5.86716 0.570221 6.29461 0.810322C6.7219 1.05063 7.05659 1.36416 7.29849 1.75086C7.54038 2.13766 7.66136 2.54284 7.66136 2.96614C7.66136 3.52003 7.47182 4.00437 7.0929 4.41967C7.39921 4.64774 7.62694 4.91433 7.77625 5.2197C7.92534 5.52507 7.99999 5.84872 7.99999 6.19075C7.99999 6.6549 7.86485 7.10278 7.59479 7.5343C7.32456 7.96602 6.93961 8.31812 6.43976 8.59086C5.93971 8.86375 5.36731 9.00001 4.72231 9.00001H0.45282V0.450012H4.85535Z" fill="white"/>
</svg>
