<svg width="8" height="9" viewBox="0 0 8 9" fill="none" xmlns="http://www.w3.org/2000/svg">
<path fill-rule="evenodd" clip-rule="evenodd" d="M4.85541 0.450012C5.38757 0.450012 5.86722 0.570221 6.29467 0.810322C6.72196 1.05063 7.05665 1.36416 7.29855 1.75086C7.54044 2.13766 7.66142 2.54284 7.66142 2.96614C7.66142 3.52003 7.47188 4.00437 7.09296 4.41967C7.39927 4.64774 7.627 4.91433 7.77631 5.2197C7.9254 5.52507 8.00005 5.84872 8.00005 6.19075C8.00005 6.6549 7.86491 7.10278 7.59485 7.5343C7.32462 7.96602 6.93967 8.31812 6.43982 8.59086C5.93977 8.86375 5.36738 9.00001 4.72237 9.00001H0.452881V0.450012H4.85541Z" fill="white"/>
</svg>
