<svg width="11" height="11" viewBox="0 0 11 11" fill="none" xmlns="http://www.w3.org/2000/svg">
<path fill-rule="evenodd" clip-rule="evenodd" d="M6.12457 0.277832C6.79524 0.277832 7.39973 0.427274 7.93843 0.725764C8.47693 1.02452 8.89874 1.41429 9.2036 1.89502C9.50845 2.37589 9.66091 2.87961 9.66091 3.40585C9.66091 4.09444 9.42204 4.69656 8.94449 5.21286C9.33054 5.4964 9.61754 5.82782 9.8057 6.20745C9.9936 6.58708 10.0877 6.98944 10.0877 7.41465C10.0877 7.99167 9.91737 8.54847 9.57701 9.08492C9.23645 9.62164 8.75131 10.0594 8.12137 10.3984C7.49116 10.7377 6.76979 10.9071 5.95691 10.9071H0.576172V0.277832H6.12457Z" fill="white"/>
</svg>
