<svg width="15" height="17" viewBox="0 0 15 17" fill="none" xmlns="http://www.w3.org/2000/svg">
<path fill-rule="evenodd" clip-rule="evenodd" d="M8.96239 0.799988C9.98413 0.799988 10.9051 1.02775 11.7257 1.48268C12.5461 1.93801 13.1888 2.53206 13.6532 3.26474C14.1176 3.99763 14.3499 4.76534 14.3499 5.56739C14.3499 6.61687 13.986 7.53455 13.2585 8.32144C13.8466 8.75358 14.2838 9.2587 14.5705 9.8373C14.8568 10.4159 15.0001 11.0291 15.0001 11.6772C15.0001 12.5566 14.7406 13.4052 14.2221 14.2228C13.7033 15.0409 12.9642 15.708 12.0045 16.2247C11.0444 16.7418 9.94535 17 8.70695 17H0.509521V0.799988H8.96239Z" fill="white"/>
</svg>
