<svg width="10" height="11" viewBox="0 0 10 11" fill="none" xmlns="http://www.w3.org/2000/svg">
<path fill-rule="evenodd" clip-rule="evenodd" d="M5.97484 0.200012C6.65601 0.200012 7.26995 0.351855 7.81709 0.65514C8.36402 0.958692 8.79243 1.35473 9.10206 1.84318C9.41168 2.33177 9.56653 2.84358 9.56653 3.37828C9.56653 4.07793 9.32392 4.68972 8.8389 5.21431C9.23098 5.50241 9.52248 5.83915 9.71358 6.22488C9.90442 6.61062 9.99998 7.01943 9.99998 7.45147C9.99998 8.03777 9.827 8.60351 9.48132 9.14858C9.13543 9.69392 8.64269 10.1387 8.00289 10.4832C7.36282 10.8279 6.63015 11 5.80455 11H0.3396V0.200012H5.97484Z" fill="white"/>
</svg>
