<svg width="53" height="60" viewBox="0 0 53 60" fill="none" xmlns="http://www.w3.org/2000/svg">
<path fill-rule="evenodd" clip-rule="evenodd" d="M31.041 0.730469C34.7571 0.730469 38.1064 1.56377 41.0913 3.22817C44.0751 4.89405 46.4123 7.06747 48.1014 9.74807C49.7906 12.4294 50.6353 15.2382 50.6353 18.1725C50.6353 22.0122 49.3118 25.3697 46.6658 28.2486C48.8048 29.8296 50.395 31.6776 51.4376 33.7945C52.4787 35.9114 53 38.1549 53 40.5259C53 43.7435 52.0563 46.8482 50.1705 49.8395C48.2835 52.8323 45.5954 55.2731 42.105 57.1637C38.6131 59.0555 34.616 60 30.112 60H0.298096V0.730469H31.041Z" fill="white"/>
</svg>
