<svg width="6" height="7" viewBox="0 0 6 7" fill="none" xmlns="http://www.w3.org/2000/svg">
<path fill-rule="evenodd" clip-rule="evenodd" d="M3.36367 0.763672C3.71298 0.763672 4.02781 0.842544 4.30839 1.00008C4.58886 1.15776 4.80855 1.36347 4.96733 1.61719C5.12611 1.87098 5.20551 2.13683 5.20551 2.41457C5.20551 2.77799 5.0811 3.09578 4.83238 3.36827C5.03344 3.51791 5.18292 3.69283 5.28092 3.89319C5.37879 4.09355 5.42779 4.30591 5.42779 4.53032C5.42779 4.83486 5.33908 5.12873 5.16181 5.41186C4.98444 5.69513 4.73176 5.92615 4.40367 6.1051C4.07543 6.28415 3.69972 6.37355 3.27634 6.37355H0.473877V0.763672H3.36367Z" fill="white"/>
</svg>
