<svg width="15" height="17" viewBox="0 0 15 17" fill="none" xmlns="http://www.w3.org/2000/svg">
<path fill-rule="evenodd" clip-rule="evenodd" d="M8.96229 0.799988C9.98404 0.799988 10.905 1.02775 11.7257 1.48268C12.5461 1.93801 13.1887 2.53206 13.6531 3.26474C14.1176 3.99763 14.3498 4.76534 14.3498 5.56739C14.3498 6.61687 13.9859 7.53455 13.2584 8.32144C13.8465 8.75358 14.2837 9.2587 14.5704 9.8373C14.8567 10.4159 15 11.0291 15 11.6772C15 12.5566 14.7405 13.4052 14.222 14.2228C13.7032 15.0409 12.9641 15.708 12.0044 16.2247C11.0443 16.7418 9.94526 17 8.70686 17H0.50943V0.799988H8.96229Z" fill="white"/>
</svg>
