<svg width="21" height="21" viewBox="0 0 21 21" fill="none" xmlns="http://www.w3.org/2000/svg">
<path fill-rule="evenodd" clip-rule="evenodd" d="M2.5 0H18.5C19.88 0 21 1.12 21 2.5V18.5C21 19.88 19.88 21 18.5 21H14.9545V12.2955H17.2273L17.7955 9.45455H14.9545V7.75C14.9545 6.89773 15.4432 6.61364 16.6591 6.61364H17.7955V4.34091C17.7955 4.34091 17.1705 3.77273 15.5227 3.77273C13.25 3.77273 12.1136 5.47727 12.1136 7.75V9.45455H9.84091V12.2955H12.1136V21H2.5C1.12 21 0 19.88 0 18.5V2.5C0 1.12 1.12 0 2.5 0Z" fill="black"/>
</svg>
