<svg width="19" height="22" viewBox="0 0 19 22" fill="none" xmlns="http://www.w3.org/2000/svg">
<path d="M19 8.90081C18.8204 8.91727 18.6384 8.92824 18.454 8.92824C16.3786 8.92824 14.5548 7.8708 13.4938 6.2725C13.4938 10.4654 13.4938 15.236 13.4938 15.316C13.4938 19.0072 10.4728 22 6.74689 22C3.02095 22 0 19.0072 0 15.316C0 11.6247 3.02095 8.63194 6.74689 8.63194C6.88773 8.63194 7.0254 8.64448 7.16387 8.6531V11.9469C7.0254 11.9304 6.88931 11.9054 6.74689 11.9054C4.84475 11.9054 3.30342 13.4323 3.30342 15.3168C3.30342 17.2012 4.84475 18.7281 6.74689 18.7281C8.64902 18.7281 10.3288 17.2435 10.3288 15.3591C10.3288 15.2846 10.3621 0 10.3621 0H13.5397C13.8388 2.81486 16.1326 5.03634 19 5.24015V8.90081Z" fill="black"/>
</svg>
